<svg width="48" height="48" viewBox="0 0 48 48" fill="none" xmlns="http://www.w3.org/2000/svg">
<path d="M21 41C22.6569 41 24 39.6569 24 38C24 36.3431 22.6569 35 21 35C19.3431 35 18 36.3431 18 38C18 39.6569 19.3431 41 21 41Z" stroke="black" stroke-width="2"/>
<path d="M35 41C36.6569 41 38 39.6569 38 38C38 36.3431 36.6569 35 35 35C33.3431 35 32 36.3431 32 38C32 39.6569 33.3431 41 35 41Z" stroke="black" stroke-width="2"/>
<path d="M8 8H12L19.008 30H35" stroke="black" stroke-width="2" stroke-linecap="round" stroke-linejoin="round"/>
<path d="M17.448 25L13.6 13H38.614C38.7725 12.9998 38.9288 13.0373 39.07 13.1094C39.2112 13.1815 39.3332 13.2861 39.426 13.4147C39.5188 13.5432 39.5797 13.692 39.6037 13.8487C39.6277 14.0054 39.6141 14.1656 39.564 14.316L36.23 24.316C36.1637 24.515 36.0365 24.6882 35.8663 24.811C35.6962 24.9337 35.4918 24.9998 35.282 25H17.448Z" stroke="black" stroke-width="2" stroke-linecap="round" stroke-linejoin="round"/>
</svg>
