<svg width="48" height="48" viewBox="0 0 48 48" fill="none" xmlns="http://www.w3.org/2000/svg">
<path d="M20 41C21.6569 41 23 39.6569 23 38C23 36.3431 21.6569 35 20 35C18.3431 35 17 36.3431 17 38C17 39.6569 18.3431 41 20 41Z" stroke="black" stroke-width="2"/>
<path d="M34 41C35.6569 41 37 39.6569 37 38C37 36.3431 35.6569 35 34 35C32.3431 35 31 36.3431 31 38C31 39.6569 32.3431 41 34 41Z" stroke="black" stroke-width="2"/>
<path d="M7 8H11L18.008 30H34" stroke="black" stroke-width="2" stroke-linecap="round" stroke-linejoin="round"/>
<path d="M16.448 25L12.6 13H37.614C37.7725 12.9998 37.9288 13.0373 38.07 13.1094C38.2112 13.1815 38.3332 13.2861 38.426 13.4147C38.5188 13.5432 38.5797 13.692 38.6037 13.8487C38.6277 14.0054 38.6141 14.1656 38.564 14.316L35.23 24.316C35.1637 24.515 35.0365 24.6882 34.8663 24.811C34.6962 24.9337 34.4918 24.9998 34.282 25H16.448Z" stroke="black" stroke-width="2" stroke-linecap="round" stroke-linejoin="round"/>
</svg>
