<svg width="48" height="48" viewBox="0 0 48 48" fill="none" xmlns="http://www.w3.org/2000/svg">
<path fill-rule="evenodd" clip-rule="evenodd" d="M20 39C20.5304 39 21.0391 38.7893 21.4142 38.4142C21.7893 38.0391 22 37.5304 22 37C22 36.4696 21.7893 35.9609 21.4142 35.5858C21.0391 35.2107 20.5304 35 20 35C19.4696 35 18.9609 35.2107 18.5858 35.5858C18.2107 35.9609 18 36.4696 18 37C18 37.5304 18.2107 38.0391 18.5858 38.4142C18.9609 38.7893 19.4696 39 20 39ZM20 41C21.0609 41 22.0783 40.5786 22.8284 39.8284C23.5786 39.0783 24 38.0609 24 37C24 35.9391 23.5786 34.9217 22.8284 34.1716C22.0783 33.4214 21.0609 33 20 33C18.9391 33 17.9217 33.4214 17.1716 34.1716C16.4214 34.9217 16 35.9391 16 37C16 38.0609 16.4214 39.0783 17.1716 39.8284C17.9217 40.5786 18.9391 41 20 41ZM34 39C34.5304 39 35.0391 38.7893 35.4142 38.4142C35.7893 38.0391 36 37.5304 36 37C36 36.4696 35.7893 35.9609 35.4142 35.5858C35.0391 35.2107 34.5304 35 34 35C33.4696 35 32.9609 35.2107 32.5858 35.5858C32.2107 35.9609 32 36.4696 32 37C32 37.5304 32.2107 38.0391 32.5858 38.4142C32.9609 38.7893 33.4696 39 34 39ZM34 41C35.0609 41 36.0783 40.5786 36.8284 39.8284C37.5786 39.0783 38 38.0609 38 37C38 35.9391 37.5786 34.9217 36.8284 34.1716C36.0783 33.4214 35.0609 33 34 33C32.9391 33 31.9217 33.4214 31.1716 34.1716C30.4214 34.9217 30 35.9391 30 37C30 38.0609 30.4214 39.0783 31.1716 39.8284C31.9217 40.5786 32.9391 41 34 41ZM7 8C7 7.73478 7.10536 7.48043 7.29289 7.29289C7.48043 7.10536 7.73478 7 8 7H12C12.212 7.00014 12.4184 7.06763 12.5895 7.19273C12.7606 7.31783 12.8876 7.49407 12.952 7.696L19.74 29H35C35.2652 29 35.5196 29.1054 35.7071 29.2929C35.8946 29.4804 36 29.7348 36 30C36 30.2652 35.8946 30.5196 35.7071 30.7071C35.5196 30.8946 35.2652 31 35 31H19.008C18.796 30.9999 18.5896 30.9324 18.4185 30.8073C18.2474 30.6822 18.1204 30.5059 18.056 30.304L11.27 9H8C7.73478 9 7.48043 8.89464 7.29289 8.70711C7.10536 8.51957 7 8.26522 7 8Z" fill="black"/>
<path d="M18 26L13 12H39.674C39.8286 12.0003 39.981 12.0364 40.1192 12.1055C40.2575 12.1745 40.3779 12.2747 40.4709 12.3982C40.5639 12.5216 40.6271 12.665 40.6554 12.8169C40.6837 12.9689 40.6764 13.1253 40.634 13.274L37.208 25.274C37.1484 25.4832 37.0223 25.6672 36.8487 25.7982C36.6751 25.9292 36.4635 26.0001 36.246 26H18Z" fill="black"/>
</svg>
