<svg width="269" height="236" viewBox="0 0 269 236" fill="none" xmlns="http://www.w3.org/2000/svg">
<path d="M252.187 181.917H248.78C238.244 181.917 227.742 179.222 220.042 172.899C210.891 165.379 203.101 156.678 196.942 147.097L187.751 132.75H182.147L172.933 147.097C167.574 155.429 160.978 163.1 153.319 169.91C145.294 168.002 137.915 164.419 131.81 159.467C119.055 148.936 108.214 136.752 99.6645 123.339L86.8646 103.25H81.2828L68.4941 123.339C58.9089 138.376 46.4509 151.857 31.6635 163.194C27.3605 166.48 22.2924 168.903 16.8125 170.294M16.8125 221.25V14.75H252.187V221.25H16.8125ZM184.937 93.4167C178.992 93.4167 173.29 91.3446 169.087 87.6564C164.883 83.9682 162.521 78.9659 162.521 73.75C162.521 68.5341 164.883 63.5318 169.087 59.8436C173.29 56.1553 178.992 54.0833 184.937 54.0833C190.883 54.0833 196.585 56.1553 200.788 59.8436C204.992 63.5318 207.354 68.5341 207.354 73.75C207.354 78.9659 204.992 83.9682 200.788 87.6564C196.585 91.3446 190.883 93.4167 184.937 93.4167Z" stroke="black" stroke-width="2"/>
</svg>
