<svg width="48" height="48" viewBox="0 0 48 48" fill="none" xmlns="http://www.w3.org/2000/svg">
<path d="M10 37.77V20.386C10 19.874 10.1147 19.3893 10.344 18.932C10.5733 18.4747 10.8893 18.098 11.292 17.802L22.062 9.646C22.626 9.21533 23.27 9 23.994 9C24.718 9 25.366 9.21533 25.938 9.646L36.708 17.8C37.112 18.096 37.428 18.4733 37.656 18.932C37.8853 19.3893 38 19.874 38 20.386V37.77C38 38.306 37.8007 38.7733 37.402 39.172C37.0033 39.5707 36.536 39.77 36 39.77H29.232C28.7733 39.77 28.3893 39.6153 28.08 39.306C27.7707 38.9953 27.616 38.6113 27.616 38.154V28.616C27.616 28.1587 27.4613 27.7753 27.152 27.466C26.8413 27.1553 26.4573 27 26 27H22C21.5427 27 21.1593 27.1553 20.85 27.466C20.5393 27.7753 20.384 28.1587 20.384 28.616V38.156C20.384 38.6133 20.2293 38.9967 19.92 39.306C19.6107 39.6153 19.2273 39.77 18.77 39.77H12C11.464 39.77 10.9967 39.5707 10.598 39.172C10.1993 38.7733 10 38.306 10 37.77Z" fill="black"/>
</svg>
