<svg width="48" height="48" viewBox="0 0 48 48" fill="none" xmlns="http://www.w3.org/2000/svg">
<path d="M12 37.77H19.384V27.616C19.384 27.1587 19.5393 26.7753 19.85 26.466C20.1593 26.1553 20.5427 26 21 26H27C27.4573 26 27.8413 26.1553 28.152 26.466C28.4613 26.7753 28.616 27.1587 28.616 27.616V37.77H36V20.386C36 20.1807 35.9553 19.994 35.866 19.826C35.7767 19.658 35.6547 19.5113 35.5 19.386L24.732 11.27C24.5267 11.0913 24.2827 11.002 24 11.002C23.7173 11.002 23.474 11.0913 23.27 11.27L12.5 19.386C12.3467 19.514 12.2247 19.6607 12.134 19.826C12.0433 19.9913 11.9987 20.178 12 20.386V37.77ZM10 37.77V20.386C10 19.874 10.1147 19.3893 10.344 18.932C10.5733 18.4747 10.8893 18.098 11.292 17.802L22.062 9.646C22.626 9.21533 23.27 9 23.994 9C24.718 9 25.366 9.21533 25.938 9.646L36.708 17.8C37.112 18.096 37.428 18.4733 37.656 18.932C37.8853 19.3893 38 19.874 38 20.386V37.77C38 38.306 37.8007 38.7733 37.402 39.172C37.0033 39.5707 36.536 39.77 36 39.77H28.232C27.7733 39.77 27.3893 39.6153 27.08 39.306C26.7707 38.9953 26.616 38.6113 26.616 38.154V28.002H21.384V38.154C21.384 38.6127 21.2293 38.9967 20.92 39.306C20.6107 39.6153 20.2273 39.77 19.77 39.77H12C11.464 39.77 10.9967 39.5707 10.598 39.172C10.1993 38.7733 10 38.306 10 37.77Z" fill="black"/>
</svg>
