<svg width="48" height="48" viewBox="0 0 48 48" fill="none" xmlns="http://www.w3.org/2000/svg">
<path d="M30 6H18C16.4087 6 14.8826 6.63214 13.7574 7.75736C12.6321 8.88258 12 10.4087 12 12V20H14V12C14 10.9391 14.4214 9.92172 15.1716 9.17157C15.9217 8.42143 16.9391 8 18 8H30C31.0609 8 32.0783 8.42143 32.8284 9.17157C33.5786 9.92172 34 10.9391 34 12V38C34 39.0609 33.5786 40.0783 32.8284 40.8284C32.0783 41.5786 31.0609 42 30 42H18C16.9391 42 15.9217 41.5786 15.1716 40.8284C14.4214 40.0783 14 39.0609 14 38V30H12V38C12 39.5913 12.6321 41.1174 13.7574 42.2426C14.8826 43.3679 16.4087 44 18 44H30C31.5913 44 33.1174 43.3679 34.2426 42.2426C35.3679 41.1174 36 39.5913 36 38V12C36 10.4087 35.3679 8.88258 34.2426 7.75736C33.1174 6.63214 31.5913 6 30 6ZM6 24H26.5L20 17.5L21.32 16L30.32 25L21.32 34L20 32.5L26.5 26H6V24Z" fill="black"/>
</svg>
