<svg width="48" height="48" viewBox="0 0 48 48" fill="none" xmlns="http://www.w3.org/2000/svg">
<path fill-rule="evenodd" clip-rule="evenodd" d="M9.62662 10.1756H21.5323C21.8784 10.1756 22.1589 10.4562 22.1589 10.8023V22.708C22.1589 23.0541 21.8784 23.3346 21.5323 23.3346H9.62662C9.28053 23.3346 9 23.0541 9 22.708V10.8023C9 10.4562 9.28053 10.1756 9.62662 10.1756ZM31.7271 9.18352L38.8165 16.2729C39.0612 16.5176 39.0612 16.9143 38.8165 17.1591L31.7271 24.2484C31.4824 24.4931 31.0857 24.4931 30.8409 24.2484L23.7516 17.159C23.5069 16.9143 23.5069 16.5176 23.7516 16.2729L30.841 9.18352C31.0857 8.93883 31.4824 8.93883 31.7271 9.18352ZM9.62662 25.8411H21.5323C21.8784 25.8411 22.1589 26.1216 22.1589 26.4677V38.3734C22.1589 38.7195 21.8784 39 21.5323 39H9.62662C9.28053 39 9 38.7195 9 38.3734V26.4677C9 26.1216 9.28053 25.8411 9.62662 25.8411ZM25.292 25.8411H37.1977C37.5438 25.8411 37.8243 26.1216 37.8243 26.4677V38.3734C37.8243 38.7195 37.5438 39 37.1977 39H25.292C24.9459 39 24.6654 38.7195 24.6654 38.3734V26.4677C24.6654 26.1216 24.9459 25.8411 25.292 25.8411Z" fill="black"/>
</svg>
